<svg width="16" height="18" viewBox="0 0 16 18" fill="none" xmlns="http://www.w3.org/2000/svg">
<path d="M0.799805 1.8C0.799805 0.805888 1.60569 0 2.5998 0H9.7998C10.0385 0 10.2674 0.0948211 10.4362 0.263604L14.9362 4.7636C15.105 4.93239 15.1998 5.1613 15.1998 5.4V16.2C15.1998 17.1941 14.3939 18 13.3998 18H2.59981C1.60569 18 0.799805 17.1941 0.799805 16.2V1.8ZM13.027 5.4L9.7998 2.17279V5.4H13.027ZM7.9998 1.8L2.5998 1.8V16.2H13.3998V7.2H8.8998C8.40275 7.2 7.9998 6.79706 7.9998 6.3V1.8ZM4.3998 9.9C4.3998 9.40294 4.80275 9 5.2998 9H10.6998C11.1969 9 11.5998 9.40294 11.5998 9.9C11.5998 10.3971 11.1969 10.8 10.6998 10.8H5.2998C4.80275 10.8 4.3998 10.3971 4.3998 9.9ZM4.3998 13.5C4.3998 13.0029 4.80275 12.6 5.2998 12.6H10.6998C11.1969 12.6 11.5998 13.0029 11.5998 13.5C11.5998 13.9971 11.1969 14.4 10.6998 14.4H5.2998C4.80275 14.4 4.3998 13.9971 4.3998 13.5Z" fill="black"/>
</svg>
