<svg width="18" height="14" viewBox="0 0 18 14" fill="none" xmlns="http://www.w3.org/2000/svg">
    <path d="M17.3353 12.8789L0.983757 0.0959767C0.938908 0.0600684 0.887425 0.0333454 0.832248 0.0173336C0.777071 0.00132179 0.71928 -0.0036653 0.662176 0.00265706C0.605071 0.00897942 0.549771 0.0264874 0.499433 0.0541814C0.449095 0.0818755 0.404705 0.119213 0.368796 0.164063L0.0953588 0.505586C0.0593662 0.550451 0.0325736 0.601973 0.0165141 0.657203C0.000454597 0.712434 -0.00455656 0.770289 0.00176738 0.827459C0.00809131 0.884628 0.0256262 0.939989 0.0533687 0.990375C0.0811111 1.04076 0.118517 1.08518 0.163445 1.12109L16.515 13.904C16.5599 13.9399 16.6113 13.9667 16.6665 13.9827C16.7217 13.9987 16.7795 14.0037 16.8366 13.9973C16.8937 13.991 16.949 13.9735 16.9993 13.9458C17.0497 13.9181 17.0941 13.8808 17.13 13.8359L17.4034 13.4944C17.4394 13.4495 17.4662 13.398 17.4823 13.3428C17.4983 13.2876 17.5033 13.2297 17.497 13.1725C17.4907 13.1154 17.4731 13.06 17.4454 13.0096C17.4177 12.9592 17.3803 12.9148 17.3353 12.8789ZM8.11473 4.00504L11.8004 6.88652C11.7397 5.24754 10.4031 3.9375 8.74938 3.9375C8.53606 3.9379 8.32336 3.96053 8.11473 4.00504ZM9.38403 9.99523L5.69837 7.11375C5.75934 8.75246 7.09591 10.0625 8.74938 10.0625C8.96269 10.062 9.17537 10.0395 9.38403 9.99523ZM8.74938 3.0625C11.4468 3.0625 13.9198 4.56641 15.2553 7C14.9279 7.59893 14.5234 8.15235 14.0522 8.64609L15.0841 9.45273C15.6587 8.8381 16.1454 8.14696 16.5306 7.39895C16.5931 7.27521 16.6257 7.13851 16.6257 6.99986C16.6257 6.86122 16.5931 6.72451 16.5306 6.60078C15.0464 3.70754 12.1108 1.75 8.74938 1.75C7.74587 1.75 6.78856 1.94141 5.88841 2.26434L7.15743 3.25664C7.67532 3.13906 8.20579 3.0625 8.74938 3.0625ZM8.74938 10.9375C6.05192 10.9375 3.57923 9.43359 2.24348 7C2.57128 6.40108 2.97623 5.84775 3.44798 5.35418L2.41602 4.54754C1.84157 5.16208 1.35489 5.85314 0.969812 6.60105C0.907261 6.72479 0.874671 6.86149 0.874671 7.00014C0.874671 7.13878 0.907261 7.27549 0.969812 7.39922C2.45266 10.2925 5.38829 12.25 8.74938 12.25C9.7529 12.25 10.7102 12.0572 11.6104 11.7357L10.3413 10.7436C9.82345 10.8609 9.29325 10.9375 8.74938 10.9375Z" fill="black"/>
</svg>
