<svg width="16" height="12" viewBox="0 0 16 12" fill="none" xmlns="http://www.w3.org/2000/svg">
    <path d="M7.87511 2.9375C7.5853 2.94203 7.29764 2.98807 7.02089 3.07422C7.1489 3.29934 7.21706 3.55353 7.21886 3.8125C7.21886 4.01359 7.17925 4.2127 7.1023 4.39848C7.02535 4.58426 6.91255 4.75307 6.77036 4.89526C6.62817 5.03745 6.45937 5.15024 6.27359 5.22719C6.08781 5.30414 5.88869 5.34375 5.68761 5.34375C5.42864 5.34195 5.17445 5.27379 4.94933 5.14578C4.77171 5.76178 4.79241 6.41805 5.0085 7.02163C5.22458 7.62521 5.6251 8.1455 6.15332 8.5088C6.68153 8.87211 7.31067 9.06001 7.95161 9.04589C8.59254 9.03176 9.21279 8.81634 9.7245 8.43012C10.2362 8.04391 10.6134 7.50648 10.8027 6.89397C10.992 6.28146 10.9838 5.62492 10.7792 5.01734C10.5746 4.40976 10.1841 3.88195 9.66286 3.50867C9.14165 3.13539 8.5162 2.93557 7.87511 2.9375ZM15.655 5.60078C14.1721 2.70754 11.2365 0.75 7.87511 0.75C4.51374 0.75 1.57729 2.70891 0.0952634 5.60105C0.0327123 5.72479 0.00012207 5.86149 0.00012207 6.00014C0.00012207 6.13878 0.0327123 6.27549 0.0952634 6.39922C1.57811 9.29246 4.51374 11.25 7.87511 11.25C11.2365 11.25 14.1729 9.29109 15.655 6.39895C15.7175 6.27521 15.7501 6.13851 15.7501 5.99986C15.7501 5.86122 15.7175 5.72451 15.655 5.60078ZM7.87511 9.9375C5.17765 9.9375 2.70468 8.43359 1.36921 6C2.70468 3.56641 5.17737 2.0625 7.87511 2.0625C10.5728 2.0625 13.0455 3.56641 14.381 6C13.0458 8.43359 10.5728 9.9375 7.87511 9.9375Z" fill="black"/>
</svg>
