<svg width="14" height="11" viewBox="0 0 14 11" fill="none" xmlns="http://www.w3.org/2000/svg">
<path d="M0 1.125C0 0.641751 0.391751 0.25 0.875 0.25H13.125C13.6082 0.25 14 0.641751 14 1.125C14 1.60825 13.6082 2 13.125 2H0.875C0.391751 2 0 1.60825 0 1.125ZM1.75 5.5C1.75 5.01675 2.14175 4.625 2.625 4.625H11.375C11.8582 4.625 12.25 5.01675 12.25 5.5C12.25 5.98325 11.8582 6.375 11.375 6.375H2.625C2.14175 6.375 1.75 5.98325 1.75 5.5ZM3.5 9.875C3.5 9.39175 3.89175 9 4.375 9H9.625C10.1082 9 10.5 9.39175 10.5 9.875C10.5 10.3582 10.1082 10.75 9.625 10.75H4.375C3.89175 10.75 3.5 10.3582 3.5 9.875Z" fill="black"/>
</svg>
