<svg width="18" height="18" viewBox="0 0 18 18" fill="none" xmlns="http://www.w3.org/2000/svg">
<g clip-path="url(#clip0_20_478)">
<path d="M17.7364 8.3636C18.0879 8.71508 18.0879 9.28492 17.7364 9.6364L15.0364 12.3364C14.6849 12.6879 14.1151 12.6879 13.7636 12.3364C13.4121 11.9849 13.4121 11.4151 13.7636 11.0636L14.9272 9.9L6.3 9.9C5.80294 9.9 5.4 9.49706 5.4 9C5.4 8.50294 5.80294 8.1 6.3 8.1L14.9272 8.1L13.7636 6.9364C13.4121 6.58492 13.4121 6.01508 13.7636 5.6636C14.1151 5.31213 14.6849 5.31213 15.0364 5.6636L17.7364 8.3636ZM9.9 1.8C10.8941 1.8 11.7 2.60589 11.7 3.6L11.7 5.4C11.7 5.89706 11.2971 6.3 10.8 6.3C10.3029 6.3 9.9 5.89706 9.9 5.4L9.9 3.6L1.8 3.6L1.8 14.4L9.9 14.4L9.9 12.6C9.9 12.1029 10.3029 11.7 10.8 11.7C11.2971 11.7 11.7 12.1029 11.7 12.6L11.7 14.4C11.7 15.3941 10.8941 16.2 9.9 16.2L1.8 16.2C0.805887 16.2 -5.94218e-07 15.3941 -5.50763e-07 14.4L-7.86805e-08 3.6C-3.52265e-08 2.60589 0.805887 1.8 1.8 1.8L9.9 1.8Z" fill="#F45252"/>
</g>
<defs>
<clipPath id="clip0_20_478">
<rect width="18" height="18" fill="white"/>
</clipPath>
</defs>
</svg>
