<svg width="17" height="17" viewBox="0 0 17 17" fill="none" xmlns="http://www.w3.org/2000/svg">
<path d="M6.92432 1.0609C7.17691 0.438735 7.78727 0 8.5001 0C9.21293 0 9.82329 0.438735 10.0759 1.0609C12.5972 1.75161 14.4501 4.05943 14.4501 6.8V10.7926L16.0073 13.1285C16.1812 13.3893 16.1974 13.7247 16.0495 14.0011C15.9016 14.2775 15.6136 14.45 15.3001 14.45H11.445C11.2387 15.8917 9.99885 17 8.5001 17C7.00135 17 5.76145 15.8917 5.55523 14.45H1.7001C1.38662 14.45 1.09859 14.2775 0.950676 14.0011C0.802759 13.7247 0.818971 13.3893 0.992856 13.1285L2.5501 10.7926V6.8C2.5501 4.05943 4.40295 1.75161 6.92432 1.0609ZM7.29765 14.45C7.47268 14.9452 7.94496 15.3 8.5001 15.3C9.05524 15.3 9.52752 14.9452 9.70255 14.45H7.29765ZM8.5001 2.55C6.15289 2.55 4.2501 4.45279 4.2501 6.8V11.05C4.2501 11.2178 4.20043 11.3819 4.10734 11.5215L3.28834 12.75H13.7119L12.8929 11.5215C12.7998 11.3819 12.7501 11.2178 12.7501 11.05V6.8C12.7501 4.45279 10.8473 2.55 8.5001 2.55Z" fill="#0D0D0D"/>
</svg>
