<svg width="17" height="17" viewBox="0 0 17 17" fill="none" xmlns="http://www.w3.org/2000/svg">
<path opacity="0.62" fill-rule="evenodd" clip-rule="evenodd" d="M13.0753 7.13765C13.0753 10.4169 10.4169 13.0753 7.13765 13.0753C3.85838 13.0753 1.2 10.4169 1.2 7.13765C1.2 3.85838 3.85838 1.2 7.13765 1.2C10.4169 1.2 13.0753 3.85838 13.0753 7.13765ZM11.7644 12.5729C10.5184 13.6345 8.90286 14.2753 7.13765 14.2753C3.19564 14.2753 0 11.0797 0 7.13765C0 3.19564 3.19564 0 7.13765 0C11.0797 0 14.2753 3.19564 14.2753 7.13765C14.2753 8.88244 13.6493 10.481 12.6095 11.721L15.9888 15.1003C16.2231 15.3346 16.2231 15.7145 15.9888 15.9488C15.7545 16.1831 15.3746 16.1831 15.1403 15.9488L11.7644 12.5729Z" fill="#828282"/>
</svg>
