<svg width="14" height="15" viewBox="0 0 14 15" fill="none" xmlns="http://www.w3.org/2000/svg">
<path d="M0 1.2C0 0.813401 0.313401 0.5 0.7 0.5H6.3C6.48565 0.5 6.6637 0.57375 6.79497 0.705025L13.795 7.70503C14.0683 7.97839 14.0683 8.42161 13.795 8.69497L8.19497 14.295C7.92161 14.5683 7.47839 14.5683 7.20503 14.295L0.205025 7.29497C0.0737498 7.1637 0 6.98565 0 6.8V1.2ZM1.4 1.9V6.51005L7.7 12.8101L12.3101 8.2L6.01005 1.9H1.4Z" fill="black"/>
<path d="M4.9 4.35C4.9 4.9299 4.4299 5.4 3.85 5.4C3.2701 5.4 2.8 4.9299 2.8 4.35C2.8 3.7701 3.2701 3.3 3.85 3.3C4.4299 3.3 4.9 3.7701 4.9 4.35Z" fill="black"/>
</svg>
