<svg width="17" height="17" viewBox="0 0 17 17" fill="none" xmlns="http://www.w3.org/2000/svg">
<path d="M8.5001 1.7C6.62233 1.7 5.1001 3.22223 5.1001 5.1C5.1001 6.97777 6.62233 8.5 8.5001 8.5C10.3779 8.5 11.9001 6.97777 11.9001 5.1C11.9001 3.22223 10.3779 1.7 8.5001 1.7ZM3.4001 5.1C3.4001 2.28335 5.68345 0 8.5001 0C11.3167 0 13.6001 2.28335 13.6001 5.1C13.6001 7.91665 11.3167 10.2 8.5001 10.2C5.68345 10.2 3.4001 7.91665 3.4001 5.1ZM5.1001 13.6C3.69177 13.6 2.5501 14.7417 2.5501 16.15C2.5501 16.6194 2.16954 17 1.7001 17C1.23066 17 0.850098 16.6194 0.850098 16.15C0.850098 13.8028 2.75289 11.9 5.1001 11.9H11.9001C14.2473 11.9 16.1501 13.8028 16.1501 16.15C16.1501 16.6194 15.7695 17 15.3001 17C14.8307 17 14.4501 16.6194 14.4501 16.15C14.4501 14.7417 13.3084 13.6 11.9001 13.6H5.1001Z" fill="#0D0D0D"/>
</svg>
