<svg width="124" height="108" viewBox="0 0 124 108" fill="none" xmlns="http://www.w3.org/2000/svg">
<path d="M41.9231 0.355649C47.1226 0.570949 52.3168 0.474064 57.5109 0.280294C58.6735 0.237234 59.8361 0.145731 60.9934 0.0326985C61.4078 -0.0103616 61.6339 0.027316 61.5585 0.500977C61.5478 0.560184 61.5585 0.619392 61.5585 0.678599C61.5531 1.42677 61.79 2.30412 61.4724 2.88543C61.1387 3.49903 60.1375 3.2945 59.4324 3.45059C53.1672 4.81237 48.253 8.2787 44.356 13.236C35.9001 23.9849 27.498 34.7768 19.0529 45.5364C18.6438 46.0531 18.8968 46.3007 19.1605 46.6667C28.0632 59.1272 36.9605 71.5877 45.8578 84.0482C48.7212 88.0582 51.617 92.0413 54.4267 96.0835C57.4893 100.497 61.6231 103.323 66.7957 104.652C67.3447 104.792 67.5331 104.997 67.49 105.546C67.4308 106.316 67.7161 107.311 67.3339 107.79C66.9679 108.248 65.9453 107.801 65.2132 107.769C58.8834 107.478 52.5536 107.451 46.2184 107.5C42.2784 107.527 38.3384 107.618 34.4092 107.92C33.661 107.979 33.3004 107.866 33.4134 107.01C33.5049 106.337 33.2143 105.465 33.5426 105.008C33.8871 104.529 34.8182 104.776 35.4857 104.674C36.6913 104.486 37.9078 104.297 39.0112 103.737C40.373 103.049 40.7767 102.08 40.3084 100.626C40.0393 99.7975 39.614 99.0493 39.135 98.3227C31.3842 86.6372 23.628 74.9518 15.8718 63.2718C14.65 61.431 13.3151 59.6763 11.8511 58.0077C9.45587 55.2788 6.43091 53.8847 2.85692 53.5833C2.11414 53.5241 1.37135 53.4326 0.623183 53.411C0.20873 53.4003 0.0687847 53.298 0.0418722 52.8566C-0.103455 50.3376 -0.11422 50.3538 2.32944 50.1546C8.47087 49.6648 13.6381 47.0973 17.5027 42.3446C23.4235 35.0728 29.2258 27.7042 34.8774 20.2171C36.729 17.7627 38.3653 15.1629 39.5495 12.3048C39.9962 11.2283 40.3461 10.1195 40.3999 8.94075C40.5022 6.72854 39.5548 5.15685 37.531 4.24182C35.814 3.46674 33.9893 3.18685 32.127 3.15455C31.2927 3.13841 30.959 2.93925 31.002 1.99731C31.0935 -0.0964817 31.029 -0.0480391 33.1443 0.0542285C36.0724 0.210321 39.0004 0.264146 41.9231 0.355649Z" fill="white"/>
<path d="M95.9304 0.279712C102.319 0.279712 108.714 0.301242 115.103 0.268947C117.46 0.258182 119.818 0.177445 122.17 0.0105871C123.037 -0.0540029 123.155 0.172062 123.069 0.947143C122.552 5.5761 122.321 10.2266 122.165 14.8825C121.982 20.3188 122.106 25.7443 122.515 31.1645C122.574 31.9181 122.402 32.1926 121.643 32.0742C121.32 32.0257 120.986 32.0634 120.658 32.0634C118.93 32.0634 118.973 32.058 118.779 30.2872C118.235 25.2707 117.498 20.2919 116.142 15.4153C114.279 8.70872 109.833 5.054 103.03 4.07438C100.452 3.70299 97.8681 3.50922 95.2683 3.54151C87.8566 3.6384 80.4503 3.38542 73.0439 3.35851C71.7629 3.35312 70.4711 3.31006 69.2008 3.5146C68.7595 3.58457 68.5818 3.51998 68.5657 2.9925C68.4796 0.457335 68.458 0.457335 71.004 0.457335C79.3145 0.457335 87.6198 0.457335 95.9304 0.457335C95.9304 0.398128 95.9304 0.33892 95.9304 0.279712Z" fill="white"/>
<path d="M78.1798 53.5879C80.898 53.5879 83.6216 53.6794 86.3343 53.561C89.1655 53.4372 91.8675 52.7375 93.7945 50.4499C95.7752 48.0978 96.9002 45.315 97.4223 42.2954C97.8744 39.6526 98.2889 36.999 98.7087 34.3455C98.7948 33.7911 98.924 33.425 99.6453 33.5112C100.528 33.6134 101.718 33.2367 102.234 33.6888C102.767 34.1517 102.304 35.3627 102.234 36.2347C101.653 43.5442 101.938 50.859 101.971 58.1738C101.997 64.1107 102.358 70.0422 102.826 75.9576C102.886 76.6789 102.735 76.9911 101.949 76.8942C101.33 76.8188 100.695 76.8404 100.07 76.8888C99.4461 76.9426 99.29 76.695 99.2093 76.0976C98.7356 72.5505 98.3104 68.998 97.4438 65.5156C97.1855 64.4714 96.7441 63.4971 96.2597 62.539C94.3004 58.6582 90.9579 57.0166 86.808 56.8336C81.1994 56.5806 75.5801 56.7636 69.9661 56.7528C69.1803 56.7528 68.9596 56.5752 68.9811 55.7732C69.0404 53.6202 68.9973 53.6202 71.188 53.6202C73.5186 53.6202 75.8492 53.6202 78.1798 53.6202C78.1798 53.6041 78.1798 53.5933 78.1798 53.5879Z" fill="white"/>
</svg>
